# Blender v2.83.1 OBJ File: 'Habitacion_0.blend'
# www.blender.org
mtllib Habitacion_0.mtl
o Cube.001
v 5.000000 4.078173 -5.000000
v 5.000000 -1.921827 -5.000000
v 5.000000 4.078173 5.000000
v 5.000000 -1.921827 5.000000
v -5.000000 4.078173 -5.000000
v -5.000000 -1.921827 -5.000000
v -5.000000 4.078173 5.000000
v -5.000000 -1.921827 5.000000
v -5.000000 -1.921827 -3.333333
v -5.000000 -1.921827 -1.666666
v -5.000000 -1.921827 0.000000
v -5.000000 -1.921827 1.666667
v -5.000000 -1.921827 3.333333
v 5.000000 4.078173 -3.333333
v 5.000000 4.078173 -1.666666
v 5.000000 4.078173 0.000000
v 5.000000 4.078173 1.666667
v 5.000000 4.078173 3.333333
v -5.000000 4.078173 3.333333
v -5.000000 4.078173 1.666666
v -5.000000 4.078173 -0.000000
v -5.000000 4.078173 -1.666667
v -5.000000 4.078173 -3.333333
v 5.000000 -1.921827 3.333333
v 5.000000 -1.921827 1.666666
v 5.000000 -1.921827 -0.000000
v 5.000000 -1.921827 -1.666667
v 5.000000 -1.921827 -3.333333
v 5.000000 2.578173 -5.000000
v 5.000000 1.078173 -5.000000
v 5.000000 -0.421827 -5.000000
v -5.000000 -0.421827 5.000000
v -5.000000 1.078173 5.000000
v -5.000000 2.578173 5.000000
v 5.000000 2.578173 5.000000
v 5.000000 1.078173 5.000000
v 5.000000 -0.421827 5.000000
v -5.000000 2.578173 -5.000000
v -5.000000 1.078173 -5.000000
v -5.000000 -0.421827 -5.000000
v 5.000000 2.578173 -3.333333
v 5.000000 1.078173 -3.333333
v 5.000000 -0.421827 -3.333333
v 5.000000 2.578173 -1.666667
v 5.000000 1.078173 -1.666667
v 5.000000 -0.421827 -1.666667
v 5.000000 2.578173 0.000000
v 5.000000 1.078173 0.000000
v 5.000000 -0.421827 -0.000000
v 5.000000 2.578173 1.666667
v 5.000000 1.078173 1.666667
v 5.000000 -0.421827 1.666667
v 5.000000 2.578173 3.333333
v 5.000000 1.078173 3.333333
v 5.000000 -0.421827 3.333333
v -5.000000 2.578173 3.333333
v -5.000000 1.078173 3.333333
v -5.000000 -0.421827 3.333333
v -5.000000 2.578173 1.666667
v -5.000000 1.078173 1.666667
v -5.000000 -0.421827 1.666667
v -5.000000 2.578173 -0.000000
v -5.000000 1.078173 0.000000
v -5.000000 -0.421827 0.000000
v -5.000000 2.578173 -1.666667
v -5.000000 1.078173 -1.666667
v -5.000000 -0.421827 -1.666667
v -5.000000 2.578173 -3.333333
v -5.000000 1.078173 -3.333333
v -5.000000 -0.421827 -3.333333
v 3.333333 -1.921827 -5.000000
v 1.666666 -1.921827 -5.000000
v -0.000000 -1.921827 -5.000000
v -1.666667 -1.921827 -5.000000
v -3.333333 -1.921827 -5.000000
v 3.333333 4.078173 5.000000
v 1.666666 4.078173 5.000000
v -0.000000 4.078173 5.000000
v -1.666667 4.078173 5.000000
v -3.333333 4.078173 5.000000
v -3.333333 -1.921827 5.000000
v -1.666666 -1.921827 5.000000
v 0.000000 -1.921827 5.000000
v 1.666667 -1.921827 5.000000
v 3.333333 -1.921827 5.000000
v -3.333333 4.078173 -5.000000
v -1.666666 4.078173 -5.000000
v 0.000000 4.078173 -5.000000
v 1.666667 4.078173 -5.000000
v 3.333333 4.078173 -5.000000
v 3.333333 -1.921827 -3.333333
v 1.666666 -1.921827 -3.333333
v -0.000000 -1.921827 -3.333333
v -1.666667 -1.921827 -3.333333
v -3.333333 -1.921827 -3.333333
v 3.333333 -1.921827 -1.666667
v 1.666666 -1.921827 -1.666667
v -0.000000 -1.921827 -1.666667
v -1.666667 -1.921827 -1.666667
v -3.333333 -1.921827 -1.666667
v 3.333333 -1.921827 -0.000000
v 1.666666 -1.921827 -0.000000
v -0.000000 -1.921827 0.000000
v -1.666667 -1.921827 0.000000
v -3.333333 -1.921827 0.000000
v 3.333333 -1.921827 1.666667
v 1.666666 -1.921827 1.666667
v -0.000000 -1.921827 1.666667
v -1.666667 -1.921827 1.666667
v -3.333333 -1.921827 1.666667
v 3.333333 -1.921827 3.333333
v 1.666666 -1.921827 3.333333
v -0.000000 -1.921827 3.333333
v -1.666667 -1.921827 3.333333
v -3.333333 -1.921827 3.333333
v -3.333333 -0.421827 -5.000000
v -1.666666 -0.421827 -5.000000
v 0.000000 -0.421827 -5.000000
v 1.666667 -0.421827 -5.000000
v 3.333333 -0.421827 -5.000000
v -3.333333 1.078173 -5.000000
v -1.666666 1.078173 -5.000000
v 0.000000 1.078173 -5.000000
v 1.666667 1.078173 -5.000000
v 3.333333 1.078173 -5.000000
v -3.333333 2.578173 -5.000000
v -1.666666 2.578173 -5.000000
v 0.000000 2.578173 -5.000000
v 1.666667 2.578173 -5.000000
v 3.333333 2.578173 -5.000000
v 3.333333 -0.421827 5.000000
v 1.666666 -0.421827 5.000000
v -0.000000 -0.421827 5.000000
v -1.666667 -0.421827 5.000000
v -3.333333 -0.421827 5.000000
v 3.333333 1.078173 5.000000
v 1.666666 1.078173 5.000000
v -0.000000 1.078173 5.000000
v -1.666667 1.078173 5.000000
v -3.333333 1.078173 5.000000
v 3.333333 2.578173 5.000000
v 1.666666 2.578173 5.000000
v -0.000000 2.578173 5.000000
v -1.666667 2.578173 5.000000
v -3.333333 2.578173 5.000000
v -5.000000 -1.921827 4.166667
v 5.000000 4.078173 4.166667
v -5.000000 4.078173 4.166667
v 5.000000 -1.921827 4.166667
v -5.000000 -0.421827 4.166667
v -5.000000 1.078173 4.166667
v -5.000000 2.578173 4.166667
v 5.000000 -0.421827 4.166667
v 5.000000 1.078173 4.166667
v 5.000000 2.578173 4.166667
v -3.333333 -1.921827 4.166667
v -1.666667 -1.921827 4.166667
v 0.000000 -1.921827 4.166667
v 1.666667 -1.921827 4.166667
v 3.333333 -1.921827 4.166667
v 3.333333 4.078173 4.166667
v 1.666667 4.078173 4.166667
v 0.000000 4.078173 4.166667
v -1.666667 4.078173 4.166667
v -3.333333 4.078173 4.166667
v -4.166667 -1.921827 -5.000000
v -4.166667 4.078173 5.000000
v -4.166667 -1.921827 -3.333333
v -4.166667 -1.921827 -1.666667
v -4.166667 -1.921827 0.000000
v -4.166667 -1.921827 1.666667
v -4.166667 -1.921827 3.333333
v -4.166667 -0.421827 5.000000
v -4.166667 1.078173 5.000000
v -4.166667 2.578173 5.000000
v -4.166667 -1.921827 5.000000
v -4.166667 4.078173 -5.000000
v -4.166667 4.078173 -3.333333
v -4.166667 4.078173 -1.666667
v -4.166667 4.078173 -0.000000
v -4.166667 4.078173 1.666667
v -4.166667 4.078173 3.333333
v -4.166667 -0.421827 -5.000000
v -4.166667 1.078173 -5.000000
v -4.166667 2.578173 -5.000000
v -4.166667 -1.921827 4.166667
v -4.166667 4.078173 4.166667
v -5.000000 4.078173 -4.166667
v 5.000000 -1.921827 -4.166667
v -5.000000 -1.921827 -4.166667
v 5.000000 4.078173 -4.166667
v 5.000000 -0.421827 -4.166667
v 5.000000 1.078173 -4.166667
v 5.000000 2.578173 -4.166667
v -5.000000 -0.421827 -4.166667
v -5.000000 1.078173 -4.166667
v -5.000000 2.578173 -4.166667
v 3.333333 4.078173 -4.166667
v 1.666667 4.078173 -4.166667
v 0.000000 4.078173 -4.166667
v -1.666666 4.078173 -4.166667
v -3.333333 4.078173 -4.166667
v -3.333333 -1.921827 -4.166667
v -1.666667 -1.921827 -4.166667
v -0.000000 -1.921827 -4.166667
v 1.666666 -1.921827 -4.166667
v 3.333333 -1.921827 -4.166667
v -4.166667 -1.921827 -4.166667
v -4.166667 4.078173 -4.166667
v 4.166667 -1.921827 5.000000
v 4.166667 4.078173 -5.000000
v 4.166667 4.078173 -3.333333
v 4.166667 4.078173 -1.666667
v 4.166667 4.078173 0.000000
v 4.166667 4.078173 1.666667
v 4.166667 4.078173 3.333333
v 4.166667 -0.421827 -5.000000
v 4.166667 1.078173 -5.000000
v 4.166667 2.578173 -5.000000
v 4.166667 -1.921827 -5.000000
v 4.166667 4.078173 5.000000
v 4.166667 -1.921827 -3.333333
v 4.166667 -1.921827 -1.666667
v 4.166667 -1.921827 -0.000000
v 4.166667 -1.921827 1.666667
v 4.166667 -1.921827 3.333333
v 4.166667 -0.421827 5.000000
v 4.166667 1.078173 5.000000
v 4.166667 2.578173 5.000000
v 4.166667 4.078173 4.166667
v 4.166667 -1.921827 4.166667
v 4.166667 4.078173 -4.166667
v 4.166667 -1.921827 -4.166667
vt 0.854167 0.729167
vt 0.875000 0.729167
vt 0.875000 0.750000
vt 0.854167 0.750000
vt 0.562500 0.979167
vt 0.625000 0.979167
vt 0.625000 1.000000
vt 0.562500 1.000000
vt 0.562500 0.229167
vt 0.625000 0.229167
vt 0.625000 0.250000
vt 0.562500 0.250000
vt 0.354167 0.729167
vt 0.375000 0.729167
vt 0.375000 0.750000
vt 0.354167 0.750000
vt 0.562500 0.729167
vt 0.625000 0.729167
vt 0.625000 0.750000
vt 0.562500 0.750000
vt 0.562500 0.479167
vt 0.625000 0.479167
vt 0.625000 0.500000
vt 0.562500 0.500000
vt 0.562500 0.520833
vt 0.625000 0.520833
vt 0.625000 0.541667
vt 0.562500 0.541667
vt 0.625000 0.583333
vt 0.562500 0.583333
vt 0.625000 0.625000
vt 0.562500 0.625000
vt 0.625000 0.666667
vt 0.562500 0.666667
vt 0.625000 0.708333
vt 0.562500 0.708333
vt 0.354167 0.520833
vt 0.375000 0.520833
vt 0.375000 0.541667
vt 0.354167 0.541667
vt 0.375000 0.583333
vt 0.354167 0.583333
vt 0.375000 0.625000
vt 0.354167 0.625000
vt 0.375000 0.666667
vt 0.354167 0.666667
vt 0.375000 0.708333
vt 0.354167 0.708333
vt 0.562500 0.020833
vt 0.625000 0.020833
vt 0.625000 0.041667
vt 0.562500 0.041667
vt 0.625000 0.083333
vt 0.562500 0.083333
vt 0.625000 0.125000
vt 0.562500 0.125000
vt 0.625000 0.166667
vt 0.562500 0.166667
vt 0.625000 0.208333
vt 0.562500 0.208333
vt 0.854167 0.520833
vt 0.875000 0.520833
vt 0.875000 0.541667
vt 0.854167 0.541667
vt 0.875000 0.583333
vt 0.854167 0.583333
vt 0.875000 0.625000
vt 0.854167 0.625000
vt 0.875000 0.666667
vt 0.854167 0.666667
vt 0.875000 0.708333
vt 0.854167 0.708333
vt 0.375000 0.166667
vt 0.437500 0.166667
vt 0.437500 0.208333
vt 0.375000 0.208333
vt 0.500000 0.166667
vt 0.500000 0.208333
vt 0.375000 0.125000
vt 0.437500 0.125000
vt 0.500000 0.125000
vt 0.375000 0.083333
vt 0.437500 0.083333
vt 0.500000 0.083333
vt 0.375000 0.041667
vt 0.437500 0.041667
vt 0.500000 0.041667
vt 0.375000 0.020833
vt 0.437500 0.020833
vt 0.500000 0.020833
vt 0.437500 0.666667
vt 0.437500 0.708333
vt 0.500000 0.666667
vt 0.500000 0.708333
vt 0.437500 0.625000
vt 0.500000 0.625000
vt 0.437500 0.583333
vt 0.500000 0.583333
vt 0.437500 0.541667
vt 0.500000 0.541667
vt 0.437500 0.520833
vt 0.500000 0.520833
vt 0.375000 0.479167
vt 0.437500 0.479167
vt 0.437500 0.500000
vt 0.375000 0.500000
vt 0.500000 0.479167
vt 0.500000 0.500000
vt 0.437500 0.729167
vt 0.437500 0.750000
vt 0.500000 0.729167
vt 0.500000 0.750000
vt 0.375000 0.229167
vt 0.437500 0.229167
vt 0.437500 0.250000
vt 0.375000 0.250000
vt 0.500000 0.229167
vt 0.500000 0.250000
vt 0.375000 0.979167
vt 0.437500 0.979167
vt 0.437500 1.000000
vt 0.375000 1.000000
vt 0.500000 0.979167
vt 0.500000 1.000000
vt 0.500000 0.770833
vt 0.562500 0.770833
vt 0.562500 0.791667
vt 0.500000 0.791667
vt 0.562500 0.833333
vt 0.500000 0.833333
vt 0.562500 0.875000
vt 0.500000 0.875000
vt 0.562500 0.916667
vt 0.500000 0.916667
vt 0.562500 0.958333
vt 0.500000 0.958333
vt 0.437500 0.770833
vt 0.437500 0.791667
vt 0.437500 0.833333
vt 0.437500 0.875000
vt 0.437500 0.916667
vt 0.437500 0.958333
vt 0.375000 0.770833
vt 0.375000 0.791667
vt 0.375000 0.833333
vt 0.375000 0.875000
vt 0.375000 0.916667
vt 0.375000 0.958333
vt 0.500000 0.270833
vt 0.562500 0.270833
vt 0.562500 0.291667
vt 0.500000 0.291667
vt 0.562500 0.333333
vt 0.500000 0.333333
vt 0.562500 0.375000
vt 0.500000 0.375000
vt 0.562500 0.416667
vt 0.500000 0.416667
vt 0.562500 0.458333
vt 0.500000 0.458333
vt 0.437500 0.270833
vt 0.437500 0.291667
vt 0.437500 0.333333
vt 0.437500 0.375000
vt 0.437500 0.416667
vt 0.437500 0.458333
vt 0.375000 0.270833
vt 0.375000 0.291667
vt 0.375000 0.333333
vt 0.375000 0.375000
vt 0.375000 0.416667
vt 0.375000 0.458333
vt 0.145833 0.666667
vt 0.166667 0.666667
vt 0.166667 0.708333
vt 0.145833 0.708333
vt 0.208333 0.666667
vt 0.208333 0.708333
vt 0.250000 0.666667
vt 0.250000 0.708333
vt 0.291667 0.666667
vt 0.291667 0.708333
vt 0.333333 0.666667
vt 0.333333 0.708333
vt 0.145833 0.625000
vt 0.166667 0.625000
vt 0.208333 0.625000
vt 0.250000 0.625000
vt 0.291667 0.625000
vt 0.333333 0.625000
vt 0.145833 0.583333
vt 0.166667 0.583333
vt 0.208333 0.583333
vt 0.250000 0.583333
vt 0.291667 0.583333
vt 0.333333 0.583333
vt 0.145833 0.541667
vt 0.166667 0.541667
vt 0.208333 0.541667
vt 0.250000 0.541667
vt 0.291667 0.541667
vt 0.333333 0.541667
vt 0.145833 0.520833
vt 0.166667 0.520833
vt 0.208333 0.520833
vt 0.250000 0.520833
vt 0.291667 0.520833
vt 0.333333 0.520833
vt 0.625000 0.270833
vt 0.625000 0.291667
vt 0.625000 0.333333
vt 0.625000 0.375000
vt 0.625000 0.416667
vt 0.625000 0.458333
vt 0.145833 0.729167
vt 0.166667 0.729167
vt 0.166667 0.750000
vt 0.145833 0.750000
vt 0.208333 0.729167
vt 0.208333 0.750000
vt 0.250000 0.729167
vt 0.250000 0.750000
vt 0.291667 0.729167
vt 0.291667 0.750000
vt 0.333333 0.729167
vt 0.333333 0.750000
vt 0.625000 0.770833
vt 0.625000 0.791667
vt 0.625000 0.833333
vt 0.625000 0.875000
vt 0.625000 0.916667
vt 0.625000 0.958333
vt 0.645833 0.729167
vt 0.666667 0.729167
vt 0.666667 0.750000
vt 0.645833 0.750000
vt 0.708333 0.729167
vt 0.708333 0.750000
vt 0.750000 0.729167
vt 0.750000 0.750000
vt 0.791667 0.729167
vt 0.791667 0.750000
vt 0.833333 0.729167
vt 0.833333 0.750000
vt 0.500000 0.000000
vt 0.562500 0.000000
vt 0.437500 0.000000
vt 0.375000 0.000000
vt 0.625000 0.000000
vt 0.125000 0.708333
vt 0.125000 0.729167
vt 0.125000 0.750000
vt 0.125000 0.520833
vt 0.125000 0.541667
vt 0.125000 0.583333
vt 0.125000 0.625000
vt 0.125000 0.666667
vt 0.833333 0.500000
vt 0.854167 0.500000
vt 0.833333 0.520833
vt 0.125000 0.500000
vt 0.145833 0.500000
vt 0.291667 0.500000
vt 0.333333 0.500000
vt 0.250000 0.500000
vt 0.208333 0.500000
vt 0.166667 0.500000
vt 0.791667 0.500000
vt 0.791667 0.520833
vt 0.750000 0.500000
vt 0.750000 0.520833
vt 0.708333 0.500000
vt 0.708333 0.520833
vt 0.666667 0.500000
vt 0.666667 0.520833
vt 0.645833 0.500000
vt 0.645833 0.520833
vt 0.875000 0.500000
vt 0.354167 0.500000
vt 0.645833 0.708333
vt 0.645833 0.541667
vt 0.645833 0.583333
vt 0.645833 0.625000
vt 0.645833 0.666667
vt 0.000000 0.000000
vt 0.000000 0.000000
vt 0.000000 0.000000
vt 0.000000 0.000000
vt 0.000000 0.000000
vt 0.000000 0.000000
vt 0.000000 0.000000
vt 0.000000 0.000000
vt 0.000000 0.000000
vt 0.000000 0.000000
vt 0.000000 0.000000
vt 0.000000 0.000000
vt 0.000000 0.000000
vt 0.000000 0.000000
vt 0.000000 0.000000
vt 0.000000 0.000000
vt 0.000000 0.000000
vt 0.000000 0.000000
vt 0.000000 0.000000
vt 0.000000 0.000000
vt 0.000000 0.000000
vt 0.000000 0.000000
vt 0.000000 0.000000
vt 0.000000 0.000000
vt 0.000000 0.000000
vt 0.000000 0.000000
vt 0.000000 0.000000
vt 0.000000 0.000000
vt 0.000000 0.000000
vt 0.000000 0.000000
vt 0.000000 0.000000
vt 0.000000 0.000000
vt 0.000000 0.000000
vt 0.000000 0.000000
vt 0.000000 0.000000
vt 0.000000 0.000000
vt 0.000000 0.000000
vt 0.000000 0.000000
vt 0.000000 0.000000
vt 0.000000 0.000000
vt 0.000000 0.000000
vt 0.000000 0.000000
vt 0.000000 0.000000
vt 0.000000 0.000000
vt 0.000000 0.000000
vt 0.000000 0.000000
vt 0.000000 0.000000
vt 0.000000 0.000000
vn 0.0000 1.0000 0.0000
vn 0.0000 0.0000 1.0000
vn -1.0000 0.0000 0.0000
vn 0.0000 -1.0000 0.0000
vn 1.0000 0.0000 0.0000
vn 0.0000 0.0000 -1.0000
usemtl Material
s off
f 187/1/1 148/2/1 7/3/1 167/4/1
f 175/5/2 167/6/2 7/7/2 34/8/2
f 197/9/3 188/10/3 5/11/3 38/12/3
f 231/13/4 149/14/4 4/15/4 210/16/4
f 155/17/5 147/18/5 3/19/5 35/20/5
f 219/21/6 211/22/6 1/23/6 29/24/6
f 194/25/5 191/26/5 14/27/5 41/28/5
f 41/28/5 14/27/5 15/29/5 44/30/5
f 44/30/5 15/29/5 16/31/5 47/32/5
f 47/32/5 16/31/5 17/33/5 50/34/5
f 50/34/5 17/33/5 18/35/5 53/36/5
f 233/37/4 189/38/4 28/39/4 222/40/4
f 222/40/4 28/39/4 27/41/4 223/42/4
f 223/42/4 27/41/4 26/43/4 224/44/4
f 224/44/4 26/43/4 25/45/4 225/46/4
f 225/46/4 25/45/4 24/47/4 226/48/4
f 152/49/3 148/50/3 19/51/3 56/52/3
f 56/52/3 19/51/3 20/53/3 59/54/3
f 59/54/3 20/53/3 21/55/3 62/56/3
f 62/56/3 21/55/3 22/57/3 65/58/3
f 65/58/3 22/57/3 23/59/3 68/60/3
f 209/61/1 188/62/1 23/63/1 178/64/1
f 178/64/1 23/63/1 22/65/1 179/66/1
f 179/66/1 22/65/1 21/67/1 180/68/1
f 180/68/1 21/67/1 20/69/1 181/70/1
f 181/70/1 20/69/1 19/71/1 182/72/1
f 10/73/3 67/74/3 70/75/3 9/76/3
f 67/74/3 66/77/3 69/78/3 70/75/3
f 66/77/3 65/58/3 68/60/3 69/78/3
f 11/79/3 64/80/3 67/74/3 10/73/3
f 64/80/3 63/81/3 66/77/3 67/74/3
f 63/81/3 62/56/3 65/58/3 66/77/3
f 12/82/3 61/83/3 64/80/3 11/79/3
f 61/83/3 60/84/3 63/81/3 64/80/3
f 60/84/3 59/54/3 62/56/3 63/81/3
f 13/85/3 58/86/3 61/83/3 12/82/3
f 58/86/3 57/87/3 60/84/3 61/83/3
f 57/87/3 56/52/3 59/54/3 60/84/3
f 146/88/3 150/89/3 58/86/3 13/85/3
f 150/89/3 151/90/3 57/87/3 58/86/3
f 151/90/3 152/49/3 56/52/3 57/87/3
f 25/45/5 52/91/5 55/92/5 24/47/5
f 52/91/5 51/93/5 54/94/5 55/92/5
f 51/93/5 50/34/5 53/36/5 54/94/5
f 26/43/5 49/95/5 52/91/5 25/45/5
f 49/95/5 48/96/5 51/93/5 52/91/5
f 48/96/5 47/32/5 50/34/5 51/93/5
f 27/41/5 46/97/5 49/95/5 26/43/5
f 46/97/5 45/98/5 48/96/5 49/95/5
f 45/98/5 44/30/5 47/32/5 48/96/5
f 28/39/5 43/99/5 46/97/5 27/41/5
f 43/99/5 42/100/5 45/98/5 46/97/5
f 42/100/5 41/28/5 44/30/5 45/98/5
f 189/38/5 192/101/5 43/99/5 28/39/5
f 192/101/5 193/102/5 42/100/5 43/99/5
f 193/102/5 194/25/5 41/28/5 42/100/5
f 220/103/6 217/104/6 31/105/6 2/106/6
f 217/104/6 218/107/6 30/108/6 31/105/6
f 218/107/6 219/21/6 29/24/6 30/108/6
f 149/14/5 153/109/5 37/110/5 4/15/5
f 153/109/5 154/111/5 36/112/5 37/110/5
f 154/111/5 155/17/5 35/20/5 36/112/5
f 190/113/3 195/114/3 40/115/3 6/116/3
f 195/114/3 196/117/3 39/118/3 40/115/3
f 196/117/3 197/9/3 38/12/3 39/118/3
f 176/119/2 173/120/2 32/121/2 8/122/2
f 173/120/2 174/123/2 33/124/2 32/121/2
f 174/123/2 175/5/2 34/8/2 33/124/2
f 228/125/2 229/126/2 141/127/2 136/128/2
f 136/128/2 141/127/2 142/129/2 137/130/2
f 137/130/2 142/129/2 143/131/2 138/132/2
f 138/132/2 143/131/2 144/133/2 139/134/2
f 139/134/2 144/133/2 145/135/2 140/136/2
f 227/137/2 228/125/2 136/128/2 131/138/2
f 131/138/2 136/128/2 137/130/2 132/139/2
f 132/139/2 137/130/2 138/132/2 133/140/2
f 133/140/2 138/132/2 139/134/2 134/141/2
f 134/141/2 139/134/2 140/136/2 135/142/2
f 210/143/2 227/137/2 131/138/2 85/144/2
f 85/144/2 131/138/2 132/139/2 84/145/2
f 84/145/2 132/139/2 133/140/2 83/146/2
f 83/146/2 133/140/2 134/141/2 82/147/2
f 82/147/2 134/141/2 135/142/2 81/148/2
f 184/149/6 185/150/6 126/151/6 121/152/6
f 121/152/6 126/151/6 127/153/6 122/154/6
f 122/154/6 127/153/6 128/155/6 123/156/6
f 123/156/6 128/155/6 129/157/6 124/158/6
f 124/158/6 129/157/6 130/159/6 125/160/6
f 183/161/6 184/149/6 121/152/6 116/162/6
f 116/162/6 121/152/6 122/154/6 117/163/6
f 117/163/6 122/154/6 123/156/6 118/164/6
f 118/164/6 123/156/6 124/158/6 119/165/6
f 119/165/6 124/158/6 125/160/6 120/166/6
f 166/167/6 183/161/6 116/162/6 75/168/6
f 75/168/6 116/162/6 117/163/6 74/169/6
f 74/169/6 117/163/6 118/164/6 73/170/6
f 73/170/6 118/164/6 119/165/6 72/171/6
f 72/171/6 119/165/6 120/166/6 71/172/6
f 171/173/4 110/174/4 115/175/4 172/176/4
f 110/174/4 109/177/4 114/178/4 115/175/4
f 109/177/4 108/179/4 113/180/4 114/178/4
f 108/179/4 107/181/4 112/182/4 113/180/4
f 107/181/4 106/183/4 111/184/4 112/182/4
f 170/185/4 105/186/4 110/174/4 171/173/4
f 105/186/4 104/187/4 109/177/4 110/174/4
f 104/187/4 103/188/4 108/179/4 109/177/4
f 103/188/4 102/189/4 107/181/4 108/179/4
f 102/189/4 101/190/4 106/183/4 107/181/4
f 169/191/4 100/192/4 105/186/4 170/185/4
f 100/192/4 99/193/4 104/187/4 105/186/4
f 99/193/4 98/194/4 103/188/4 104/187/4
f 98/194/4 97/195/4 102/189/4 103/188/4
f 97/195/4 96/196/4 101/190/4 102/189/4
f 168/197/4 95/198/4 100/192/4 169/191/4
f 95/198/4 94/199/4 99/193/4 100/192/4
f 94/199/4 93/200/4 98/194/4 99/193/4
f 93/200/4 92/201/4 97/195/4 98/194/4
f 92/201/4 91/202/4 96/196/4 97/195/4
f 208/203/4 203/204/4 95/198/4 168/197/4
f 203/204/4 204/205/4 94/199/4 95/198/4
f 204/205/4 205/206/4 93/200/4 94/199/4
f 205/206/4 206/207/4 92/201/4 93/200/4
f 206/207/4 207/208/4 91/202/4 92/201/4
f 185/150/6 177/209/6 86/210/6 126/151/6
f 126/151/6 86/210/6 87/211/6 127/153/6
f 127/153/6 87/211/6 88/212/6 128/155/6
f 128/155/6 88/212/6 89/213/6 129/157/6
f 129/157/6 89/213/6 90/214/6 130/159/6
f 186/215/4 156/216/4 81/217/4 176/218/4
f 156/216/4 157/219/4 82/220/4 81/217/4
f 157/219/4 158/221/4 83/222/4 82/220/4
f 158/221/4 159/223/4 84/224/4 83/222/4
f 159/223/4 160/225/4 85/226/4 84/224/4
f 229/126/2 221/227/2 76/228/2 141/127/2
f 141/127/2 76/228/2 77/229/2 142/129/2
f 142/129/2 77/229/2 78/230/2 143/131/2
f 143/131/2 78/230/2 79/231/2 144/133/2
f 144/133/2 79/231/2 80/232/2 145/135/2
f 230/233/1 161/234/1 76/235/1 221/236/1
f 161/234/1 162/237/1 77/238/1 76/235/1
f 162/237/1 163/239/1 78/240/1 77/238/1
f 163/239/1 164/241/1 79/242/1 78/240/1
f 164/241/1 165/243/1 80/244/1 79/242/1
f 112/182/4 111/184/4 160/225/4 159/223/4
f 113/180/4 112/182/4 159/223/4 158/221/4
f 114/178/4 113/180/4 158/221/4 157/219/4
f 115/175/4 114/178/4 157/219/4 156/216/4
f 172/176/4 115/175/4 156/216/4 186/215/4
f 54/94/5 53/36/5 155/17/5 154/111/5
f 55/92/5 54/94/5 154/111/5 153/109/5
f 24/47/5 55/92/5 153/109/5 149/14/5
f 33/245/3 34/246/3 152/49/3 151/90/3
f 32/247/3 33/245/3 151/90/3 150/89/3
f 8/248/3 32/247/3 150/89/3 146/88/3
f 34/246/3 7/249/3 148/50/3 152/49/3
f 53/36/5 18/35/5 147/18/5 155/17/5
f 226/48/4 24/47/4 149/14/4 231/13/4
f 182/72/1 19/71/1 148/2/1 187/1/1
f 13/250/4 172/176/4 186/215/4 146/251/4
f 146/251/4 186/215/4 176/218/4 8/252/4
f 38/12/6 5/11/6 177/209/6 185/150/6
f 190/253/4 208/203/4 168/197/4 9/254/4
f 9/254/4 168/197/4 169/191/4 10/255/4
f 10/255/4 169/191/4 170/185/4 11/256/4
f 11/256/4 170/185/4 171/173/4 12/257/4
f 12/257/4 171/173/4 172/176/4 13/250/4
f 6/116/6 40/115/6 183/161/6 166/167/6
f 40/115/6 39/118/6 184/149/6 183/161/6
f 39/118/6 38/12/6 185/150/6 184/149/6
f 140/136/2 145/135/2 175/5/2 174/123/2
f 135/142/2 140/136/2 174/123/2 173/120/2
f 81/148/2 135/142/2 173/120/2 176/119/2
f 145/135/2 80/232/2 167/6/2 175/5/2
f 165/243/1 187/1/1 167/4/1 80/244/1
f 86/258/1 177/259/1 209/61/1 202/260/1
f 6/261/4 166/262/4 208/203/4 190/253/4
f 72/263/4 71/264/4 207/208/4 206/207/4
f 73/265/4 72/263/4 206/207/4 205/206/4
f 74/266/4 73/265/4 205/206/4 204/205/4
f 75/267/4 74/266/4 204/205/4 203/204/4
f 166/262/4 75/267/4 203/204/4 208/203/4
f 87/268/1 86/258/1 202/260/1 201/269/1
f 88/270/1 87/268/1 201/269/1 200/271/1
f 89/272/1 88/270/1 200/271/1 199/273/1
f 90/274/1 89/272/1 199/273/1 198/275/1
f 211/276/1 90/274/1 198/275/1 232/277/1
f 69/78/3 68/60/3 197/9/3 196/117/3
f 70/75/3 69/78/3 196/117/3 195/114/3
f 9/76/3 70/75/3 195/114/3 190/113/3
f 30/108/5 29/24/5 194/25/5 193/102/5
f 31/105/5 30/108/5 193/102/5 192/101/5
f 2/106/5 31/105/5 192/101/5 189/38/5
f 177/259/1 5/278/1 188/62/1 209/61/1
f 220/279/4 2/106/4 189/38/4 233/37/4
f 29/24/5 1/23/5 191/26/5 194/25/5
f 68/60/3 23/59/3 188/10/3 197/9/3
f 71/264/4 220/279/4 233/37/4 207/208/4
f 1/23/1 211/276/1 232/277/1 191/26/1
f 111/184/4 226/48/4 231/13/4 160/225/4
f 18/35/1 216/280/1 230/233/1 147/18/1
f 147/18/1 230/233/1 221/236/1 3/19/1
f 35/20/2 3/19/2 221/227/2 229/126/2
f 191/26/1 232/277/1 212/281/1 14/27/1
f 14/27/1 212/281/1 213/282/1 15/29/1
f 15/29/1 213/282/1 214/283/1 16/31/1
f 16/31/1 214/283/1 215/284/1 17/33/1
f 17/33/1 215/284/1 216/280/1 18/35/1
f 4/15/2 37/110/2 227/137/2 210/143/2
f 37/110/2 36/112/2 228/125/2 227/137/2
f 36/112/2 35/20/2 229/126/2 228/125/2
f 125/160/6 130/159/6 219/21/6 218/107/6
f 120/166/6 125/160/6 218/107/6 217/104/6
f 71/172/6 120/166/6 217/104/6 220/103/6
f 106/183/4 225/46/4 226/48/4 111/184/4
f 101/190/4 224/44/4 225/46/4 106/183/4
f 96/196/4 223/42/4 224/44/4 101/190/4
f 91/202/4 222/40/4 223/42/4 96/196/4
f 207/208/4 233/37/4 222/40/4 91/202/4
f 130/159/6 90/214/6 211/22/6 219/21/6
f 160/225/4 231/13/4 210/16/4 85/226/4
f 209/285/2 208/286/2 203/287/2 204/288/2 205/289/2 206/290/2 207/291/2 233/292/2 232/293/2 198/294/2 199/295/2 200/296/2 201/297/2 202/298/2
f 225/299/3 226/300/3 231/301/3 230/302/3 216/303/3 215/304/3 214/305/3 213/306/3 212/307/3 232/293/3 233/292/3 222/308/3 223/309/3 224/310/3
f 187/311/6 165/312/6 164/313/6 163/314/6 162/315/6 161/316/6 230/302/6 231/301/6 160/317/6 159/318/6 158/319/6 157/320/6 156/321/6 186/322/6
f 181/323/5 182/324/5 187/311/5 186/322/5 172/325/5 171/326/5 170/327/5 169/328/5 168/329/5 208/286/5 209/285/5 178/330/5 179/331/5 180/332/5
