# Blender v2.83.1 OBJ File: 'rampa.blend'
# www.blender.org
mtllib rampa.mtl
o Cube
v 1.000000 0.998743 -1.000000
v 1.000000 0.032739 -1.000000
v 1.000000 0.032739 1.000000
v -1.000000 0.998743 -1.000000
v -1.000000 0.032739 -1.000000
v -1.000000 0.032739 1.000000
vt 0.375000 0.250000
vt 0.125000 0.750000
vt 0.625000 0.250000
vt 0.625000 0.500000
vt 0.375000 0.750000
vt 0.375000 0.500000
vt 0.125000 0.500000
vn -1.0000 0.0000 0.0000
vn 1.0000 0.0000 0.0000
vn 0.0000 -1.0000 0.0000
vn 0.0000 0.9005 0.4349
vn 0.0000 0.0000 -1.0000
usemtl Material
s off
f 5/1/1 6/2/1 4/3/1
f 1/4/2 3/5/2 2/6/2
f 5/7/3 2/6/3 3/5/3 6/2/3
f 1/4/4 4/3/4 6/2/4 3/5/4
f 5/1/5 4/3/5 1/4/5 2/6/5
